<?xml version="1.0" encoding="utf-8"?>
<!-- Generator: Adobe Illustrator 24.2.1, SVG Export Plug-In . SVG Version: 6.00 Build 0)  -->
<svg version="1.1" id="Layer_1" xmlns="http://www.w3.org/2000/svg" xmlns:xlink="http://www.w3.org/1999/xlink" x="0px" y="0px"
	 viewBox="0 0 61.8 61.8" style="enable-background:new 0 0 61.8 61.8;" xml:space="preserve">
<style type="text/css">
	.st0{fill:#3DBC93;}
	.st1{fill-rule:evenodd;clip-rule:evenodd;fill:#E9573E;}
	.st2{clip-path:url(#SVGID_2_);}
	.st3{opacity:0.18;fill-rule:evenodd;clip-rule:evenodd;enable-background:new    ;}
	.st4{fill-rule:evenodd;clip-rule:evenodd;fill:#F9DCA4;}
	.st5{fill-rule:evenodd;clip-rule:evenodd;fill:#677079;}
	.st6{opacity:0.11;fill-rule:evenodd;clip-rule:evenodd;enable-background:new    ;}
	.st7{fill-rule:evenodd;clip-rule:evenodd;fill:#FFE8BE;}
	.st8{fill-rule:evenodd;clip-rule:evenodd;fill:#434955;}
	.st9{fill-rule:evenodd;clip-rule:evenodd;fill:#60350A;}
	.st10{fill-rule:evenodd;clip-rule:evenodd;fill:#362008;}
</style>
<g id="Layer_2_1_">
	<g id="_ÎÓÈ_1">
		<circle class="st0" cx="30.9" cy="30.9" r="30.9"/>
		<path class="st1" d="M53.5,52c-5.8,6.3-14,9.8-22.6,9.8c-1.3,0-2.6-0.1-3.8-0.2c-3.9-0.6-7.7-1.8-11.2-3.6
			c-2.9-1.6-5.6-3.7-7.9-6.2l1.3-3.1l13.9-6.2c0,4.5,1.3,10,7.4,10.1c7.6,0.1,8.5-5.5,8.5-10.2L52,48.6L53.5,52z"/>
		<g>
			<defs>
				<path id="SVGID_1_" d="M53.5,52c-5.8,6.3-14,9.8-22.6,9.8c-1.3,0-2.6-0.1-3.8-0.2c-3.9-0.6-7.7-1.8-11.2-3.6
					c-2.9-1.6-5.6-3.7-7.9-6.2l1.3-3.1l13.9-6.2c0,4.5,1.3,10,7.4,10.1c7.6,0.1,8.5-5.5,8.5-10.2L52,48.6L53.5,52z"/>
			</defs>
			<clipPath id="SVGID_2_">
				<use xlink:href="#SVGID_1_"  style="overflow:visible;"/>
			</clipPath>
			<g class="st2">
				<path class="st3" d="M0.7,74.7v-0.8h65.8v0.8H0.7z M10.1,33.7v2.2h2.2v-2.2H10.1z M10.1,36.7v2.2h2.2v-2.2H10.1z M10.1,39.7v1.9
					h2.2v-1.9H10.1z M10.1,42.3v2.2h2.2v-2.2H10.1z M10.1,45.3v2.2h2.2v-2.2H10.1z M10.1,48.3v2.2h2.2v-2.2H10.1z M10.1,51.3v2h2.2
					v-2H10.1z M10.1,54v2.2h2.2V54H10.1z M10.1,57v2.2h2.2V57H10.1z M10.1,60v2.2h2.2V60H10.1z M10.1,63v1.9h2.2V63H10.1z
					 M10.1,65.7v2.2H9.3v-2.2H0.7v-0.8h8.6V63H0.7v-0.8h8.6V60H0.7v-0.8h8.6V57H0.7v-0.8h8.6V54H0.7v-0.8h8.6v-2H0.7v-0.8h8.6v-2.2
					H0.7v-0.8h8.6v-2.2H0.7v-0.8h8.6v-2.2H0.7v-0.8h8.6v-1.9H0.7v-0.8h8.6v-2.2H0.7v-0.8h8.6v-2.2H0.7v-0.8h65.8v0.8H53.6v2.2h12.9
					v0.8H53.6v2.2h12.9v0.8H53.6v1.9h12.9v0.8H53.6v2.2h12.9v0.8H53.6v2.2h12.9v0.8H53.6v2.2h12.9v0.8H53.6v2h12.9V54H53.6v2.2h12.9
					V57H53.6v2.2h12.9V60H53.6v2.2h12.9V63H53.6v1.9h12.9v0.8H53.6v2.2h-0.8v-2.2h-2.2v2.2h-0.8v-2.2h-2.2v2.2h-0.8v-2.2h-2.2v2.2
					h-0.8v-2.2h-1.8v2.2h-0.8v-2.2h-2.2v2.2h-0.8v-2.2h-2.2v2.2h-0.8v-2.2h-2.2v2.2h-0.8v-2.2h-1.9v2.2h-0.8v-2.2h-2.2v2.2h-0.8
					v-2.2h-2.2v2.2h-0.8v-2.2h-2.2v2.2h-0.8v-2.2H19v2.2h-0.8v-2.2H16v2.2h-0.8v-2.2h-2.2v2.2h-0.8v-2.2L10.1,65.7z M34.7,29.9h31.8
					v0.8H0.7v-0.8H34.7L34.7,29.9z M52.8,33.7h-2.2v2.2h2.2V33.7z M49.9,33.7h-2.2v2.2h2.2V33.7z M46.9,33.7h-2.2v2.2h2.2V33.7z
					 M43.9,33.7h-1.8v2.2h1.8V33.7z M41.3,33.7h-2.2v2.2h2.2V33.7z M38.4,33.7h-2.2v2.2h2.2C38.4,35.9,38.4,33.7,38.4,33.7z
					 M35.4,33.7h-2.2v2.2h2.2V33.7z M32.4,33.7h-1.9v2.2h1.9V33.7z M29.7,33.7h-2.2v2.2h2.2L29.7,33.7L29.7,33.7z M26.8,33.7h-2.2
					v2.2h2.2L26.8,33.7L26.8,33.7z M23.8,33.7h-2.2v2.2h2.2L23.8,33.7L23.8,33.7z M20.8,33.7H19v2.2h1.8L20.8,33.7L20.8,33.7z
					 M18.2,33.7H16v2.2h2.2C18.2,35.9,18.2,33.7,18.2,33.7z M15.3,33.7h-2.2v2.2h2.2V33.7z M52.8,36.7h-2.2v2.2h2.2V36.7z
					 M49.9,36.7h-2.2v2.2h2.2V36.7z M46.9,36.7h-2.2v2.2h2.2V36.7z M43.9,36.7h-1.8v2.2h1.8V36.7z M41.3,36.7h-2.2v2.2h2.2V36.7z
					 M38.4,36.7h-2.2v2.2h2.2L38.4,36.7L38.4,36.7z M35.4,36.7h-2.2v2.2h2.2V36.7z M32.4,36.7h-1.9v2.2h1.9V36.7z M29.7,36.7h-2.2
					v2.2h2.2L29.7,36.7L29.7,36.7z M26.8,36.7h-2.2v2.2h2.2L26.8,36.7L26.8,36.7z M23.8,36.7h-2.2v2.2h2.2L23.8,36.7L23.8,36.7z
					 M20.8,36.7H19v2.2h1.8L20.8,36.7L20.8,36.7z M18.2,36.7H16v2.2h2.2L18.2,36.7L18.2,36.7z M15.3,36.7h-2.2v2.2h2.2V36.7z
					 M52.8,39.7h-2.2v1.9h2.2V39.7z M49.9,39.7h-2.2v1.9h2.2V39.7z M46.9,39.7h-2.2v1.9h2.2V39.7z M43.9,39.7h-1.8v1.9h1.8V39.7z
					 M41.3,39.7h-2.2v1.9h2.2V39.7z M38.4,39.7h-2.2v1.9h2.2L38.4,39.7L38.4,39.7z M35.4,39.7h-2.2v1.9h2.2V39.7z M32.4,39.7h-1.9
					v1.9h1.9V39.7z M29.7,39.7h-2.2v1.9h2.2L29.7,39.7L29.7,39.7z M26.8,39.7h-2.2v1.9h2.2L26.8,39.7L26.8,39.7z M23.8,39.7h-2.2
					v1.9h2.2L23.8,39.7L23.8,39.7z M20.8,39.7H19v1.9h1.8L20.8,39.7L20.8,39.7z M18.2,39.7H16v1.9h2.2L18.2,39.7L18.2,39.7z
					 M15.3,39.7h-2.2v1.9h2.2V39.7z M52.8,42.3h-2.2v2.2h2.2V42.3z M49.9,42.3h-2.2v2.2h2.2V42.3z M46.9,42.3h-2.2v2.2h2.2V42.3z
					 M43.9,42.3h-1.8v2.2h1.8V42.3z M41.3,42.3h-2.2v2.2h2.2V42.3z M38.4,42.3h-2.2v2.2h2.2L38.4,42.3L38.4,42.3z M35.4,42.3h-2.2
					v2.2h2.2V42.3z M32.4,42.3h-1.9v2.2h1.9V42.3z M29.7,42.3h-2.2v2.2h2.2L29.7,42.3L29.7,42.3z M26.8,42.3h-2.2v2.2h2.2L26.8,42.3
					L26.8,42.3z M23.8,42.3h-2.2v2.2h2.2L23.8,42.3L23.8,42.3z M20.8,42.3H19v2.2h1.8L20.8,42.3L20.8,42.3z M18.2,42.3H16v2.2h2.2
					L18.2,42.3L18.2,42.3z M15.3,42.3h-2.2v2.2h2.2V42.3z M52.8,45.3h-2.2v2.2h2.2V45.3z M49.9,45.3h-2.2v2.2h2.2V45.3z M46.9,45.3
					h-2.2v2.2h2.2V45.3z M43.9,45.3h-1.8v2.2h1.8V45.3z M41.3,45.3h-2.2v2.2h2.2V45.3z M38.4,45.3h-2.2v2.2h2.2L38.4,45.3L38.4,45.3
					z M35.4,45.3h-2.2v2.2h2.2V45.3z M32.4,45.3h-1.9v2.2h1.9V45.3z M29.7,45.3h-2.2v2.2h2.2L29.7,45.3L29.7,45.3z M26.8,45.3h-2.2
					v2.2h2.2L26.8,45.3L26.8,45.3z M23.8,45.3h-2.2v2.2h2.2L23.8,45.3L23.8,45.3z M20.8,45.3H19v2.2h1.8L20.8,45.3L20.8,45.3z
					 M18.2,45.3H16v2.2h2.2L18.2,45.3L18.2,45.3z M15.3,45.3h-2.2v2.2h2.2V45.3z M52.8,48.3h-2.2v2.2h2.2V48.3z M49.9,48.3h-2.2v2.2
					h2.2V48.3z M46.9,48.3h-2.2v2.2h2.2V48.3z M43.9,48.3h-1.8v2.2h1.8V48.3z M41.3,48.3h-2.2v2.2h2.2V48.3z M38.4,48.3h-2.2v2.2
					h2.2L38.4,48.3L38.4,48.3z M35.4,48.3h-2.2v2.2h2.2V48.3z M32.4,48.3h-1.9v2.2h1.9V48.3z M29.7,48.3h-2.2v2.2h2.2L29.7,48.3
					L29.7,48.3z M26.8,48.3h-2.2v2.2h2.2L26.8,48.3L26.8,48.3z M23.8,48.3h-2.2v2.2h2.2L23.8,48.3L23.8,48.3z M20.8,48.3H19v2.2h1.8
					L20.8,48.3L20.8,48.3z M18.2,48.3H16v2.2h2.2L18.2,48.3L18.2,48.3z M15.3,48.3h-2.2v2.2h2.2V48.3z M52.8,51.3h-2.2v2h2.2V51.3z
					 M49.9,51.3h-2.2v2h2.2V51.3z M46.9,51.3h-2.2v2h2.2V51.3z M43.9,51.3h-1.8v2h1.8V51.3z M41.3,51.3h-2.2v2h2.2V51.3z M38.4,51.3
					h-2.2v2h2.2L38.4,51.3L38.4,51.3z M35.4,51.3h-2.2v2h2.2V51.3z M32.4,51.3h-1.9v2h1.9V51.3z M29.7,51.3h-2.2v2h2.2L29.7,51.3
					L29.7,51.3z M26.8,51.3h-2.2v2h2.2L26.8,51.3L26.8,51.3z M23.8,51.3h-2.2v2h2.2L23.8,51.3L23.8,51.3z M20.8,51.3H19v2h1.8
					L20.8,51.3L20.8,51.3z M18.2,51.3H16v2h2.2L18.2,51.3L18.2,51.3z M15.3,51.3h-2.2v2h2.2V51.3z M52.8,54h-2.2v2.2h2.2V54z
					 M49.9,54h-2.2v2.2h2.2V54z M46.9,54h-2.2v2.2h2.2V54z M43.9,54h-1.8v2.2h1.8V54z M41.3,54h-2.2v2.2h2.2V54z M38.4,54h-2.2v2.2
					h2.2L38.4,54L38.4,54z M35.4,54h-2.2v2.2h2.2V54z M32.4,54h-1.9v2.2h1.9V54z M29.7,54h-2.2v2.2h2.2L29.7,54L29.7,54z M26.8,54
					h-2.2v2.2h2.2L26.8,54L26.8,54z M23.8,54h-2.2v2.2h2.2L23.8,54L23.8,54z M20.8,54H19v2.2h1.8L20.8,54L20.8,54z M18.2,54H16v2.2
					h2.2L18.2,54L18.2,54z M15.3,54h-2.2v2.2h2.2V54z M52.8,57h-2.2v2.2h2.2V57z M49.9,57h-2.2v2.2h2.2V57z M46.9,57h-2.2v2.2h2.2
					V57z M43.9,57h-1.8v2.2h1.8V57z M41.3,57h-2.2v2.2h2.2V57z M38.4,57h-2.2v2.2h2.2L38.4,57L38.4,57z M35.4,57h-2.2v2.2h2.2V57z
					 M32.4,57h-1.9v2.2h1.9V57z M29.7,57h-2.2v2.2h2.2L29.7,57L29.7,57z M26.8,57h-2.2v2.2h2.2L26.8,57L26.8,57z M23.8,57h-2.2v2.2
					h2.2L23.8,57L23.8,57z M20.8,57H19v2.2h1.8L20.8,57L20.8,57z M18.2,57H16v2.2h2.2L18.2,57L18.2,57z M15.3,57h-2.2v2.2h2.2V57z
					 M52.8,60h-2.2v2.2h2.2V60z M49.9,60h-2.2v2.2h2.2V60z M46.9,60h-2.2v2.2h2.2V60z M43.9,60h-1.8v2.2h1.8V60z M41.3,60h-2.2v2.2
					h2.2V60z M38.4,60h-2.2v2.2h2.2L38.4,60L38.4,60z M35.4,60h-2.2v2.2h2.2V60z M32.4,60h-1.9v2.2h1.9V60z M29.7,60h-2.2v2.2h2.2
					L29.7,60L29.7,60z M26.8,60h-2.2v2.2h2.2L26.8,60L26.8,60z M23.8,60h-2.2v2.2h2.2L23.8,60L23.8,60z M20.8,60H19v2.2h1.8L20.8,60
					L20.8,60z M18.2,60H16v2.2h2.2L18.2,60L18.2,60z M15.3,60h-2.2v2.2h2.2V60z M52.8,63h-2.2v1.9h2.2C52.8,64.9,52.8,63,52.8,63z
					 M49.9,63h-2.2v1.9h2.2C49.9,64.9,49.9,63,49.9,63z M46.9,63h-2.2v1.9h2.2C46.9,64.9,46.9,63,46.9,63z M43.9,63h-1.8v1.9h1.8
					C43.9,64.9,43.9,63,43.9,63z M41.3,63h-2.2v1.9h2.2C41.3,64.9,41.3,63,41.3,63z M38.4,63h-2.2v1.9h2.2L38.4,63L38.4,63z
					 M35.4,63h-2.2v1.9h2.2C35.4,64.9,35.4,63,35.4,63z M32.4,63h-1.9v1.9h1.9C32.4,64.9,32.4,63,32.4,63z M29.7,63h-2.2v1.9h2.2
					L29.7,63L29.7,63z M26.8,63h-2.2v1.9h2.2L26.8,63L26.8,63z M23.8,63h-2.2v1.9h2.2L23.8,63L23.8,63z M20.8,63H19v1.9h1.8L20.8,63
					L20.8,63z M18.2,63H16v1.9h2.2L18.2,63L18.2,63z M15.3,63h-2.2v1.9h2.2C15.3,64.9,15.3,63,15.3,63z M34.7,67.9h31.8v0.8H0.7
					v-0.8H34.7L34.7,67.9z M34.7,70.9h31.8v0.8H0.7v-0.8H34.7L34.7,70.9z"/>
			</g>
		</g>
		<path class="st4" d="M23.3,38.7l15.9,0.1v12.9l-15.9-0.1V38.7z"/>
		<path class="st5" d="M39.2,60.7c-5.2,1.4-10.7,1.5-15.9,0.2V47.6c3.9,4.7,11.8,4.7,15.9,0.1V60.7z"/>
		<path class="st6" d="M39.2,43.5v2.3c0,0.2,0,1.5,0,1.5c-4.8,3.5-14.5,1.4-15.9-3.1L39.2,43.5z"/>
		<path class="st7" d="M31.1,8.4c21.3,0,13,35.3,0,35.3C18.9,43.7,9.8,8.4,31.1,8.4z"/>
		<path class="st4" d="M18.4,24c-3.1,1.3-0.5,7.7,1.5,7.7C19,29.2,18.5,26.6,18.4,24L18.4,24z"/>
		<path class="st4" d="M44.1,24c3.1,1.3,0.5,7.7-1.5,7.7C43.5,29.2,44,26.6,44.1,24z"/>
		<path class="st8" d="M23.3,53.2L20.9,51l-4.8,2.4l7.2-13.7C23.3,39.7,23.3,53.2,23.3,53.2z"/>
		<path class="st8" d="M39.2,53.2l2.4-2.2l4.8,2.4l-7.2-13.7L39.2,53.2z"/>
		<path class="st9" d="M18.4,23.9c-2.8-5-3.7-8.2-2.3-10.7c2-3.5,6.6-3.1,7-3.9c4-8.5,24.8-2,24,11.1c-0.4-0.9-0.9-1.7-1.5-2.5
			c0,0-0.1,5-1.4,7c-1.7-2.9-6.4-5.7-6.4-5.7s1.3,4.3,2.1,5.2c-1.1-0.1-13.2-3.5-16.3-13.5C19.5,13.1,18.2,20.2,18.4,23.9L18.4,23.9
			z"/>
		<path class="st9" d="M31.1,46.5c-2.7,0-15.1,0.1-12.8-22.7c0,0,0.8,6.6,3,9.5c0.7,1.2,2.3,1.7,3.5,1c0.1-0.1,0.2-0.1,0.3-0.2
			c1.2-0.8,1.4-2.4,2.8-2.9c1.1-0.5,2.5-0.2,3.2,0.8c0.8-1,2.1-1.3,3.2-0.8c1.4,0.5,1.7,2.1,2.8,2.9c1.1,0.9,2.7,0.7,3.6-0.4
			c0.1-0.1,0.2-0.2,0.2-0.3c2.1-2.9,3-9.5,3-9.5C46.3,46.7,33.8,46.6,31.1,46.5z"/>
		<path class="st10" d="M23.9,35.9c0,0,5.6,1.7,7.2-3.5l0-0.1l0,0.1c1.6,5.2,7.2,3.5,7.2,3.5c-3,2.5-5.2-0.2-7.3-0.2
			C28.9,35.8,26.8,38.2,23.9,35.9L23.9,35.9z"/>
	</g>
</g>
</svg>
